<svg xmlns="http://www.w3.org/2000/svg" xmlns:xlink="http://www.w3.org/1999/xlink" width="500" zoomAndPan="magnify" viewBox="0 0 375 149.999998" height="200" preserveAspectRatio="xMidYMid meet" version="1.0"><defs><g/><clipPath id="b2a7d5d48d"><path d="M 4.878906 29.511719 L 95.59375 29.511719 L 95.59375 120.222656 L 4.878906 120.222656 Z M 4.878906 29.511719 " clip-rule="nonzero"/></clipPath></defs><g clip-path="url(#b2a7d5d48d)"><path fill="#16404d" d="M 95.847656 120.480469 L 95.847656 120.117188 L 11.125 120.117188 L 95.847656 114.820312 L 95.847656 114.457031 L 11.148438 119.75 L 95.847656 109.164062 L 95.847656 108.800781 L 11.191406 119.378906 L 95.847656 103.507812 L 95.847656 103.140625 L 11.257812 119 L 95.847656 97.851562 L 95.847656 97.480469 L 11.34375 118.605469 L 95.847656 92.195312 L 95.847656 91.816406 L 11.457031 118.191406 L 95.847656 86.542969 L 95.847656 86.15625 L 11.582031 117.753906 L 95.847656 80.890625 L 95.847656 80.492188 L 11.726562 117.296875 L 95.847656 75.234375 L 95.847656 74.832031 L 11.890625 116.808594 L 95.847656 69.582031 L 95.847656 69.167969 L 12.070312 116.292969 L 95.847656 63.929688 L 95.847656 63.503906 L 12.261719 115.746094 L 95.847656 58.277344 L 95.847656 57.839844 L 12.464844 115.164062 L 95.847656 52.628906 L 95.847656 52.175781 L 12.683594 114.546875 L 95.847656 46.976562 L 95.847656 46.507812 L 12.914062 113.894531 L 95.847656 41.324219 L 95.847656 40.84375 L 13.148438 113.207031 L 95.847656 35.675781 L 95.847656 35.175781 L 13.394531 112.476562 L 95.847656 30.023438 L 95.847656 29.511719 L 4.878906 120.480469 Z M 95.847656 120.480469 " fill-opacity="1" fill-rule="nonzero"/></g><g fill="#16404d" fill-opacity="1"><g transform="translate(108.428896, 66.306807)"><g><path d="M 38.21875 -33.734375 L 34.375 -33.734375 L 34.375 0 L 28.703125 0 L 28.703125 -7.9375 C 27.910156 -4.800781 26.550781 -2.550781 24.625 -1.1875 C 22.707031 0.175781 20.382812 0.859375 17.65625 0.859375 C 15.582031 0.859375 13.628906 0.460938 11.796875 -0.328125 C 9.960938 -1.128906 8.335938 -2.234375 6.921875 -3.640625 C 5.515625 -5.054688 4.421875 -6.691406 3.640625 -8.546875 C 2.859375 -10.410156 2.46875 -12.410156 2.46875 -14.546875 C 2.46875 -16.648438 2.859375 -18.625 3.640625 -20.46875 C 4.421875 -22.320312 5.515625 -23.953125 6.921875 -25.359375 C 8.335938 -26.765625 9.960938 -27.863281 11.796875 -28.65625 C 13.628906 -29.457031 15.582031 -29.859375 17.65625 -29.859375 C 20.382812 -29.859375 22.707031 -29.175781 24.625 -27.8125 C 26.550781 -26.445312 27.910156 -24.203125 28.703125 -21.078125 L 28.703125 -34 C 28.703125 -35.25 29.113281 -36.285156 29.9375 -37.109375 C 30.769531 -37.929688 31.8125 -38.34375 33.0625 -38.34375 L 38.21875 -38.34375 Z M 28.703125 -14.546875 C 28.703125 -16.703125 28.273438 -18.582031 27.421875 -20.1875 C 26.566406 -21.800781 25.347656 -23.046875 23.765625 -23.921875 C 22.191406 -24.804688 20.34375 -25.25 18.21875 -25.25 C 16.019531 -25.25 14.175781 -24.800781 12.6875 -23.90625 C 11.195312 -23.007812 10.066406 -21.757812 9.296875 -20.15625 C 8.523438 -18.550781 8.140625 -16.679688 8.140625 -14.546875 C 8.140625 -12.472656 8.515625 -10.617188 9.265625 -8.984375 C 10.023438 -7.347656 11.148438 -6.066406 12.640625 -5.140625 C 14.140625 -4.210938 16 -3.75 18.21875 -3.75 C 20.320312 -3.75 22.160156 -4.21875 23.734375 -5.15625 C 25.316406 -6.09375 26.539062 -7.375 27.40625 -9 C 28.269531 -10.625 28.703125 -12.472656 28.703125 -14.546875 Z M 28.703125 -14.546875 "/></g></g></g><g fill="#16404d" fill-opacity="1"><g transform="translate(148.14152, 66.306807)"><g><path d="M 16.640625 -36.984375 L 12.28125 -32.625 L 7.890625 -36.984375 L 12.28125 -41.328125 Z M 15.90625 -4.609375 L 23.375 -4.609375 L 23.375 0 L 2.90625 0 L 2.90625 -4.609375 L 10.359375 -4.609375 L 10.359375 -25.25 L 3.109375 -25.25 L 3.109375 -29.859375 L 11.5625 -29.859375 C 12.8125 -29.859375 13.847656 -29.445312 14.671875 -28.625 C 15.492188 -27.800781 15.90625 -26.765625 15.90625 -25.515625 Z M 15.90625 -4.609375 "/></g></g></g><g fill="#16404d" fill-opacity="1"><g transform="translate(173.137856, 66.306807)"><g><path d="M 32.25 -29.515625 L 27.171875 -29.515625 L 27 -27.421875 C 28.59375 -26.316406 29.863281 -24.894531 30.8125 -23.15625 C 31.769531 -21.425781 32.25 -19.410156 32.25 -17.109375 C 32.25 -14.941406 31.9375 -13.164062 31.3125 -11.78125 C 30.6875 -10.40625 29.8125 -9.25 28.6875 -8.3125 C 27.5625 -7.375 26.257812 -6.453125 24.78125 -5.546875 C 25.207031 -5.429688 25.769531 -5.203125 26.46875 -4.859375 C 27.164062 -4.515625 27.863281 -4.015625 28.5625 -3.359375 C 29.257812 -2.710938 29.847656 -1.875 30.328125 -0.84375 C 30.804688 0.175781 31.046875 1.410156 31.046875 2.859375 C 31.046875 3.878906 30.832031 4.929688 30.40625 6.015625 C 29.988281 7.097656 29.257812 8.113281 28.21875 9.0625 C 27.175781 10.019531 25.726562 10.789062 23.875 11.375 C 22.03125 11.957031 19.703125 12.25 16.890625 12.25 L 6.609375 12.25 L 6.609375 6.78125 L 16.890625 6.78125 C 19.273438 6.78125 21.070312 6.585938 22.28125 6.203125 C 23.488281 5.816406 24.300781 5.304688 24.71875 4.671875 C 25.132812 4.035156 25.34375 3.332031 25.34375 2.5625 C 25.34375 1.625 25.078125 0.867188 24.546875 0.296875 C 24.023438 -0.265625 23.34375 -0.664062 22.5 -0.90625 C 21.664062 -1.15625 20.769531 -1.265625 19.8125 -1.234375 C 18.863281 -1.203125 17.945312 -1.0625 17.0625 -0.8125 L 6.609375 2.09375 L 6.609375 -3.203125 L 17.0625 -5.96875 C 13.875 -5.96875 11.285156 -6.296875 9.296875 -6.953125 C 7.304688 -7.609375 5.773438 -8.484375 4.703125 -9.578125 C 3.640625 -10.671875 2.910156 -11.867188 2.515625 -13.171875 C 2.117188 -14.484375 1.921875 -15.796875 1.921875 -17.109375 C 1.921875 -19.921875 2.601562 -22.304688 3.96875 -24.265625 C 5.332031 -26.234375 7.15625 -27.726562 9.4375 -28.75 C 11.726562 -29.769531 14.269531 -30.28125 17.0625 -30.28125 C 17.800781 -30.28125 18.519531 -30.242188 19.21875 -30.171875 C 19.914062 -30.109375 20.59375 -30.003906 21.25 -29.859375 C 21.8125 -31.191406 22.703125 -32.234375 23.921875 -32.984375 C 25.148438 -33.742188 26.519531 -34.125 28.03125 -34.125 L 32.25 -34.125 Z M 17.0625 -10.234375 C 19.21875 -10.234375 21.003906 -10.429688 22.421875 -10.828125 C 23.847656 -11.234375 24.914062 -11.9375 25.625 -12.9375 C 26.34375 -13.945312 26.703125 -15.363281 26.703125 -17.1875 C 26.703125 -20.09375 25.90625 -22.226562 24.3125 -23.59375 C 22.71875 -24.957031 20.300781 -25.640625 17.0625 -25.640625 C 13.789062 -25.640625 11.375 -24.957031 9.8125 -23.59375 C 8.25 -22.226562 7.46875 -20.09375 7.46875 -17.1875 C 7.46875 -15.363281 7.816406 -13.945312 8.515625 -12.9375 C 9.210938 -11.9375 10.269531 -11.234375 11.6875 -10.828125 C 13.113281 -10.429688 14.90625 -10.234375 17.0625 -10.234375 Z M 17.0625 -10.234375 "/></g></g></g><g fill="#16404d" fill-opacity="1"><g transform="translate(207.00662, 66.306807)"><g><path d="M 16.640625 -36.984375 L 12.28125 -32.625 L 7.890625 -36.984375 L 12.28125 -41.328125 Z M 15.90625 -4.609375 L 23.375 -4.609375 L 23.375 0 L 2.90625 0 L 2.90625 -4.609375 L 10.359375 -4.609375 L 10.359375 -25.25 L 3.109375 -25.25 L 3.109375 -29.859375 L 11.5625 -29.859375 C 12.8125 -29.859375 13.847656 -29.445312 14.671875 -28.625 C 15.492188 -27.800781 15.90625 -26.765625 15.90625 -25.515625 Z M 15.90625 -4.609375 "/></g></g></g><g fill="#16404d" fill-opacity="1"><g transform="translate(232.002956, 66.306807)"><g><path d="M 21.203125 -29.859375 C 23.585938 -29.859375 25.769531 -29.445312 27.75 -28.625 C 29.726562 -27.800781 31.304688 -26.476562 32.484375 -24.65625 C 33.660156 -22.832031 34.25 -20.429688 34.25 -17.453125 L 34.25 0 L 28.28125 0 L 28.28125 -17.453125 C 28.28125 -20.148438 27.5625 -22.125 26.125 -23.375 C 24.6875 -24.625 22.875 -25.25 20.6875 -25.25 C 18.46875 -25.25 16.660156 -24.898438 15.265625 -24.203125 C 13.878906 -23.503906 12.859375 -22.570312 12.203125 -21.40625 C 11.546875 -20.25 11.21875 -18.929688 11.21875 -17.453125 L 11.21875 0 L 5.25 0 L 5.25 -25.203125 L 1.40625 -25.203125 L 1.40625 -29.859375 L 6.875 -29.859375 C 8.125 -29.859375 9.160156 -29.445312 9.984375 -28.625 C 10.804688 -27.800781 11.21875 -26.765625 11.21875 -25.515625 L 11.21875 -24.09375 C 11.789062 -25.78125 12.90625 -27.160156 14.5625 -28.234375 C 16.226562 -29.316406 18.441406 -29.859375 21.203125 -29.859375 Z M 21.203125 -29.859375 "/></g></g></g><g fill="#16404d" fill-opacity="1"><g transform="translate(267.577958, 66.306807)"><g><path d="M 30.96875 -12.546875 L 8.484375 -12.546875 C 8.484375 -11.609375 8.585938 -10.679688 8.796875 -9.765625 C 9.015625 -8.859375 9.40625 -8.023438 9.96875 -7.265625 C 10.539062 -6.515625 11.375 -5.910156 12.46875 -5.453125 C 13.570312 -5.003906 15.003906 -4.78125 16.765625 -4.78125 C 19.347656 -4.78125 21.300781 -5.191406 22.625 -6.015625 C 23.945312 -6.835938 24.707031 -8.046875 24.90625 -9.640625 L 30.40625 -9.640625 C 30.207031 -7.453125 29.472656 -5.609375 28.203125 -4.109375 C 26.941406 -2.617188 25.316406 -1.503906 23.328125 -0.765625 C 21.335938 -0.0234375 19.148438 0.34375 16.765625 0.34375 C 14.234375 0.34375 12.113281 0.015625 10.40625 -0.640625 C 8.695312 -1.296875 7.316406 -2.15625 6.265625 -3.21875 C 5.210938 -4.28125 4.414062 -5.453125 3.875 -6.734375 C 3.34375 -8.015625 2.972656 -9.28125 2.765625 -10.53125 C 2.566406 -11.78125 2.46875 -12.921875 2.46875 -13.953125 C 2.46875 -19.410156 3.734375 -23.472656 6.265625 -26.140625 C 8.796875 -28.816406 12.296875 -30.15625 16.765625 -30.15625 C 19.753906 -30.15625 22.304688 -29.539062 24.421875 -28.3125 C 26.535156 -27.09375 28.15625 -25.1875 29.28125 -22.59375 C 30.40625 -20.007812 30.96875 -16.660156 30.96875 -12.546875 Z M 24.703125 -16.546875 C 24.585938 -18.453125 24.265625 -20.054688 23.734375 -21.359375 C 23.210938 -22.671875 22.394531 -23.664062 21.28125 -24.34375 C 20.175781 -25.03125 18.65625 -25.375 16.71875 -25.375 C 13.875 -25.375 11.847656 -24.613281 10.640625 -23.09375 C 9.429688 -21.570312 8.726562 -19.390625 8.53125 -16.546875 Z M 24.703125 -16.546875 "/></g></g></g><g fill="#16404d" fill-opacity="1"><g transform="translate(300.16705, 66.306807)"><g><path d="M 30.96875 -12.546875 L 8.484375 -12.546875 C 8.484375 -11.609375 8.585938 -10.679688 8.796875 -9.765625 C 9.015625 -8.859375 9.40625 -8.023438 9.96875 -7.265625 C 10.539062 -6.515625 11.375 -5.910156 12.46875 -5.453125 C 13.570312 -5.003906 15.003906 -4.78125 16.765625 -4.78125 C 19.347656 -4.78125 21.300781 -5.191406 22.625 -6.015625 C 23.945312 -6.835938 24.707031 -8.046875 24.90625 -9.640625 L 30.40625 -9.640625 C 30.207031 -7.453125 29.472656 -5.609375 28.203125 -4.109375 C 26.941406 -2.617188 25.316406 -1.503906 23.328125 -0.765625 C 21.335938 -0.0234375 19.148438 0.34375 16.765625 0.34375 C 14.234375 0.34375 12.113281 0.015625 10.40625 -0.640625 C 8.695312 -1.296875 7.316406 -2.15625 6.265625 -3.21875 C 5.210938 -4.28125 4.414062 -5.453125 3.875 -6.734375 C 3.34375 -8.015625 2.972656 -9.28125 2.765625 -10.53125 C 2.566406 -11.78125 2.46875 -12.921875 2.46875 -13.953125 C 2.46875 -19.410156 3.734375 -23.472656 6.265625 -26.140625 C 8.796875 -28.816406 12.296875 -30.15625 16.765625 -30.15625 C 19.753906 -30.15625 22.304688 -29.539062 24.421875 -28.3125 C 26.535156 -27.09375 28.15625 -25.1875 29.28125 -22.59375 C 30.40625 -20.007812 30.96875 -16.660156 30.96875 -12.546875 Z M 24.703125 -16.546875 C 24.585938 -18.453125 24.265625 -20.054688 23.734375 -21.359375 C 23.210938 -22.671875 22.394531 -23.664062 21.28125 -24.34375 C 20.175781 -25.03125 18.65625 -25.375 16.71875 -25.375 C 13.875 -25.375 11.847656 -24.613281 10.640625 -23.09375 C 9.429688 -21.570312 8.726562 -19.390625 8.53125 -16.546875 Z M 24.703125 -16.546875 "/></g></g></g><g fill="#16404d" fill-opacity="1"><g transform="translate(332.756156, 66.306807)"><g><path d="M 1.40625 -25.25 L 1.40625 -29.859375 L 6.65625 -29.859375 C 7.90625 -29.828125 8.925781 -29.40625 9.71875 -28.59375 C 10.519531 -27.789062 10.921875 -26.765625 10.921875 -25.515625 L 10.921875 -24.09375 C 11.429688 -25.09375 12.125 -26.03125 13 -26.90625 C 13.882812 -27.789062 14.9375 -28.503906 16.15625 -29.046875 C 17.382812 -29.585938 18.765625 -29.859375 20.296875 -29.859375 C 22.378906 -29.859375 24.21875 -29.550781 25.8125 -28.9375 C 27.40625 -28.332031 28.710938 -27.265625 29.734375 -25.734375 C 30.753906 -24.210938 31.4375 -22.078125 31.78125 -19.328125 L 26.0625 -19.328125 C 26.0625 -21.367188 25.503906 -22.863281 24.390625 -23.8125 C 23.285156 -24.769531 21.9375 -25.25 20.34375 -25.25 C 17.15625 -25.25 14.785156 -24.550781 13.234375 -23.15625 C 11.691406 -21.769531 10.921875 -19.441406 10.921875 -16.171875 L 10.921875 0 L 5.25 0 L 5.25 -25.25 Z M 1.40625 -25.25 "/></g></g></g><g fill="#16404d" fill-opacity="1"><g transform="translate(108.428896, 121.597394)"><g><path d="M 1.65625 0 L 1.65625 -4.609375 L 5.5 -4.609375 L 5.5 -34.71875 L 1.65625 -34.71875 L 1.65625 -39.375 L 6.265625 -39.375 C 7.117188 -39.375 7.941406 -39.1875 8.734375 -38.8125 C 9.535156 -38.445312 10.191406 -37.9375 10.703125 -37.28125 C 11.210938 -36.625 11.46875 -35.867188 11.46875 -35.015625 L 11.46875 -4.609375 L 15.3125 -4.609375 L 15.3125 0 Z M 1.65625 0 "/></g></g></g><g fill="#16404d" fill-opacity="1"><g transform="translate(125.150001, 121.597394)"><g><path d="M 2.46875 -9.125 C 2.46875 -10.863281 2.921875 -12.363281 3.828125 -13.625 C 4.742188 -14.894531 5.984375 -15.910156 7.546875 -16.671875 C 9.109375 -17.441406 10.882812 -17.925781 12.875 -18.125 L 26.703125 -19.5 C 26.703125 -20.0625 26.570312 -20.679688 26.3125 -21.359375 C 26.0625 -22.046875 25.625 -22.703125 25 -23.328125 C 24.375 -23.953125 23.5 -24.472656 22.375 -24.890625 C 21.25 -25.304688 19.820312 -25.515625 18.09375 -25.515625 C 15.582031 -25.515625 13.472656 -25.097656 11.765625 -24.265625 C 10.066406 -23.441406 9.101562 -22.175781 8.875 -20.46875 L 3.578125 -20.46875 C 3.867188 -22.550781 4.648438 -24.304688 5.921875 -25.734375 C 7.203125 -27.171875 8.890625 -28.265625 10.984375 -29.015625 C 13.078125 -29.773438 15.457031 -30.15625 18.125 -30.15625 C 20.625 -30.15625 22.71875 -29.910156 24.40625 -29.421875 C 26.101562 -28.941406 27.476562 -28.289062 28.53125 -27.46875 C 29.582031 -26.644531 30.382812 -25.71875 30.9375 -24.6875 C 31.5 -23.664062 31.878906 -22.609375 32.078125 -21.515625 C 32.273438 -20.421875 32.375 -19.378906 32.375 -18.390625 L 32.375 0 L 26.703125 0 L 26.703125 -9 C 26.273438 -7.832031 25.597656 -6.691406 24.671875 -5.578125 C 23.753906 -4.472656 22.691406 -3.472656 21.484375 -2.578125 C 20.273438 -1.679688 19 -0.96875 17.65625 -0.4375 C 16.320312 0.0820312 15.015625 0.34375 13.734375 0.34375 C 10.210938 0.34375 7.453125 -0.5 5.453125 -2.1875 C 3.460938 -3.882812 2.46875 -6.195312 2.46875 -9.125 Z M 8.140625 -9.046875 C 8.140625 -7.617188 8.644531 -6.472656 9.65625 -5.609375 C 10.664062 -4.742188 12.039062 -4.3125 13.78125 -4.3125 C 15.175781 -4.3125 16.691406 -4.707031 18.328125 -5.5 C 19.960938 -6.300781 21.515625 -7.523438 22.984375 -9.171875 C 24.460938 -10.816406 25.660156 -12.894531 26.578125 -15.40625 L 13.734375 -14.15625 C 12.398438 -14.039062 11.316406 -13.710938 10.484375 -13.171875 C 9.660156 -12.640625 9.0625 -12.003906 8.6875 -11.265625 C 8.320312 -10.523438 8.140625 -9.785156 8.140625 -9.046875 Z M 8.140625 -9.046875 "/></g></g></g><g fill="#16404d" fill-opacity="1"><g transform="translate(159.146726, 121.597394)"><g><path d="M 2.46875 -33.578125 L 2.46875 -38.34375 L 7.640625 -38.34375 C 8.890625 -38.34375 9.925781 -37.929688 10.75 -37.109375 C 11.570312 -36.285156 11.984375 -35.25 11.984375 -34 L 11.984375 -21.078125 C 12.785156 -24.203125 14.144531 -26.445312 16.0625 -27.8125 C 17.976562 -29.175781 20.300781 -29.859375 23.03125 -29.859375 C 25.132812 -29.859375 27.097656 -29.457031 28.921875 -28.65625 C 30.742188 -27.863281 32.359375 -26.765625 33.765625 -25.359375 C 35.171875 -23.953125 36.265625 -22.320312 37.046875 -20.46875 C 37.828125 -18.625 38.21875 -16.648438 38.21875 -14.546875 C 38.21875 -12.410156 37.828125 -10.410156 37.046875 -8.546875 C 36.265625 -6.691406 35.171875 -5.054688 33.765625 -3.640625 C 32.359375 -2.234375 30.742188 -1.128906 28.921875 -0.328125 C 27.097656 0.460938 25.132812 0.859375 23.03125 0.859375 C 20.300781 0.859375 17.976562 0.175781 16.0625 -1.1875 C 14.144531 -2.550781 12.785156 -4.800781 11.984375 -7.9375 L 11.984375 0 L 6.3125 0 L 6.3125 -33.578125 Z M 11.984375 -14.546875 C 11.984375 -12.472656 12.414062 -10.625 13.28125 -9 C 14.15625 -7.375 15.378906 -6.09375 16.953125 -5.15625 C 18.535156 -4.21875 20.378906 -3.75 22.484375 -3.75 C 24.722656 -3.75 26.582031 -4.210938 28.0625 -5.140625 C 29.539062 -6.066406 30.65625 -7.347656 31.40625 -8.984375 C 32.164062 -10.617188 32.546875 -12.472656 32.546875 -14.546875 C 32.546875 -16.679688 32.160156 -18.550781 31.390625 -20.15625 C 30.628906 -21.757812 29.5 -23.007812 28 -23.90625 C 26.507812 -24.800781 24.671875 -25.25 22.484375 -25.25 C 20.347656 -25.25 18.5 -24.804688 16.9375 -23.921875 C 15.375 -23.046875 14.15625 -21.800781 13.28125 -20.1875 C 12.414062 -18.582031 11.984375 -16.703125 11.984375 -14.546875 Z M 11.984375 -14.546875 "/></g></g></g></svg>